<svg width="121" height="126" viewBox="0 0 121 126" fill="none" xmlns="http://www.w3.org/2000/svg">
<path fill-rule="evenodd" clip-rule="evenodd" d="M63.0696 2.4477C62.1715 -0.316228 58.2613 -0.316226 57.3632 2.44771L50.5832 23.3146C53.6716 22.5654 56.8976 22.1683 60.2164 22.1683C63.5352 22.1683 66.7612 22.5654 69.8496 23.3146L63.0696 2.4477ZM26.1229 12.9006L44.0948 25.4846C38.0775 28.0819 32.8112 32.0888 28.7119 37.0893L21.5656 16.3347C20.6194 13.5869 23.7423 11.2336 26.1229 12.9006ZM3.6186 41.4955L25.5638 41.4955C22.2234 46.8956 20.1101 53.1349 19.6129 59.8242L1.85525 46.9225C-0.495892 45.2143 0.712435 41.4955 3.6186 41.4955ZM2.14274 79.864L19.6718 66.6549C20.2841 73.3248 22.505 79.5291 25.9432 84.8764L4.00055 85.2594C1.09482 85.3101 -0.178228 81.6129 2.14274 79.864ZM22.3839 110.103L29.1671 89.2265C33.3491 94.1511 38.6818 98.068 44.7497 100.562L27.0004 113.457C24.6493 115.165 21.4858 112.867 22.3839 110.103ZM58.4185 123.363L51.275 102.617C54.1523 103.262 57.1446 103.602 60.2164 103.602C63.7828 103.602 67.2421 103.144 70.5386 102.282L64.1239 123.264C63.2742 126.043 59.3646 126.111 58.4185 123.363ZM93.4324 113.457L75.6831 100.562C81.751 98.068 87.0837 94.1512 91.2657 89.2266L98.0489 110.103C98.947 112.867 95.7835 115.165 93.4324 113.457ZM117.179 83.2839L95.2378 83.6669C98.4795 78.2158 100.485 71.9434 100.867 65.2366L118.847 77.8269C121.228 79.4938 120.085 83.2332 117.179 83.2839ZM118.578 46.9225L100.82 59.8242C100.323 53.1349 98.2094 46.8956 94.869 41.4955L116.814 41.4955C119.72 41.4955 120.929 45.2143 118.578 46.9225ZM97.2191 15.0142L90.8012 36.0063C86.5378 31.1589 81.1403 27.3334 75.0235 24.9444L92.5447 11.7412C94.8657 9.99219 98.0688 12.235 97.2191 15.0142ZM60.2164 94.1014C77.4567 94.1014 91.4327 80.1254 91.4327 62.8852C91.4327 47.1372 79.7714 34.1128 64.6129 31.9761C63.1765 31.7736 61.7087 31.6689 60.2164 31.6689C55.9064 31.6689 51.8003 32.5424 48.0656 34.122C36.8617 38.8609 29.0002 49.955 29.0002 62.8852C29.0002 62.8852 29.0002 62.8852 29.0002 62.8852C29.0002 65.0402 29.2185 67.1442 29.6344 69.1763C32.5452 83.401 45.1312 94.1014 60.2164 94.1014Z" fill="#803600"/>
</svg>
